<svg width="418" height="438" viewBox="0 0 418 438" fill="none" xmlns="http://www.w3.org/2000/svg">
<path d="M83.74 13.576H89.524V15.784C90.052 14.152 91.212 13.336 93.004 13.336C94.812 13.336 95.908 14.2 96.292 15.928C96.852 14.2 98.028 13.336 99.82 13.336C102.172 13.336 103.348 14.672 103.348 17.344V24.568H104.692V25H98.044V24.568H98.884V16.768C98.884 15.552 98.78 14.84 98.572 14.632C98.476 14.536 98.348 14.488 98.188 14.488C97.724 14.488 97.316 14.8 96.964 15.424C96.612 16.048 96.436 16.84 96.436 17.8V24.568H97.3V25H91.132V24.568H91.972V16.768C91.972 15.552 91.868 14.84 91.66 14.632C91.564 14.536 91.436 14.488 91.276 14.488C90.828 14.488 90.42 14.832 90.052 15.52C89.7 16.192 89.524 17 89.524 17.944V24.568H90.388V25H83.74V24.568H85.06V14.008H83.74V13.576ZM111.357 25.24C109.293 25.24 107.741 24.712 106.701 23.656C105.677 22.584 105.165 21.104 105.165 19.216C105.165 17.312 105.741 15.856 106.893 14.848C108.061 13.84 109.541 13.336 111.333 13.336C114.965 13.336 116.709 15.16 116.565 18.808H109.797V19.744C109.797 21.312 109.997 22.496 110.397 23.296C110.797 24.096 111.493 24.496 112.485 24.496C114.341 24.496 115.557 23.504 116.133 21.52L116.565 21.592C116.261 22.744 115.709 23.64 114.909 24.28C114.125 24.92 112.941 25.24 111.357 25.24ZM109.821 18.328H112.293V17.152C112.293 15.856 112.213 14.976 112.053 14.512C111.909 14.032 111.605 13.792 111.141 13.792C110.693 13.792 110.357 14.048 110.133 14.56C109.925 15.056 109.821 15.92 109.821 17.152V18.328ZM122.292 20.032C122.292 21.712 122.38 22.832 122.556 23.392C122.732 23.936 123.052 24.208 123.516 24.208C123.996 24.208 124.404 24 124.74 23.584C125.092 23.168 125.268 22.552 125.268 21.736V16.504C125.268 15.816 125.132 15.232 124.86 14.752C124.588 14.272 124.188 14.032 123.66 14.032C123.132 14.032 122.772 14.384 122.58 15.088C122.388 15.792 122.292 17.024 122.292 18.784V20.032ZM125.58 25L125.316 23.32C124.772 24.6 123.668 25.24 122.004 25.24C120.628 25.24 119.556 24.744 118.788 23.752C118.036 22.76 117.66 21.28 117.66 19.312C117.66 15.328 119.244 13.336 122.412 13.336C123.82 13.336 124.748 13.728 125.196 14.512V7.432H123.732V7H129.732V24.568H130.908V25H125.58ZM135.057 11.92C134.209 11.92 133.601 11.704 133.233 11.272C132.881 10.84 132.705 10.304 132.705 9.664C132.705 9.024 132.897 8.496 133.281 8.08C133.681 7.664 134.281 7.456 135.081 7.456C135.881 7.456 136.489 7.648 136.905 8.032C137.321 8.4 137.529 8.936 137.529 9.64C137.529 10.328 137.329 10.88 136.929 11.296C136.529 11.712 135.905 11.92 135.057 11.92ZM131.433 13.576H137.313V24.568H138.657V25H131.529V24.568H132.849V14.008H131.433V13.576ZM152.718 25H147.246L146.982 23.248C146.726 23.888 146.342 24.384 145.83 24.736C145.334 25.072 144.59 25.24 143.598 25.24C141.118 25.24 139.878 23.904 139.878 21.232V14.008H138.534V13.576H144.342V21.808C144.342 22.768 144.406 23.4 144.534 23.704C144.678 24.008 144.95 24.16 145.35 24.16C145.766 24.16 146.134 23.912 146.454 23.416C146.774 22.92 146.934 22.232 146.934 21.352V14.008H145.83V13.576H151.398V24.568H152.718V25ZM153.209 13.576H158.993V15.784C159.521 14.152 160.681 13.336 162.473 13.336C164.281 13.336 165.377 14.2 165.761 15.928C166.321 14.2 167.497 13.336 169.289 13.336C171.641 13.336 172.817 14.672 172.817 17.344V24.568H174.161V25H167.513V24.568H168.353V16.768C168.353 15.552 168.249 14.84 168.041 14.632C167.945 14.536 167.817 14.488 167.657 14.488C167.193 14.488 166.785 14.8 166.433 15.424C166.081 16.048 165.905 16.84 165.905 17.8V24.568H166.769V25H160.601V24.568H161.441V16.768C161.441 15.552 161.337 14.84 161.129 14.632C161.033 14.536 160.905 14.488 160.745 14.488C160.297 14.488 159.889 14.832 159.521 15.52C159.169 16.192 158.993 17 158.993 17.944V24.568H159.857V25H153.209V24.568H154.529V14.008H153.209V13.576Z" fill="#304A78"/>
<path d="M130.5 42C130.5 41.1716 129.828 40.5 129 40.5C128.172 40.5 127.5 41.1716 127.5 42L130.5 42ZM127.939 63.0607C128.525 63.6464 129.475 63.6464 130.061 63.0607L139.607 53.5147C140.192 52.9289 140.192 51.9792 139.607 51.3934C139.021 50.8076 138.071 50.8076 137.485 51.3934L129 59.8787L120.515 51.3934C119.929 50.8076 118.979 50.8076 118.393 51.3934C117.808 51.9792 117.808 52.9289 118.393 53.5147L127.939 63.0607ZM127.5 42L127.5 62L130.5 62L130.5 42L127.5 42Z" fill="black"/>
<path d="M109.496 95H104.384V93.632H105.944V88.664C105.944 87.512 105.712 86.704 105.248 86.24C104.8 85.76 104.224 85.52 103.52 85.52C102.544 85.52 101.792 85.888 101.264 86.624C100.736 87.36 100.464 88.064 100.448 88.736V93.632H102.296V95H97.208V93.632H98.744V88.664C98.744 87.496 98.52 86.68 98.072 86.216C97.624 85.752 97.056 85.52 96.368 85.52C95.376 85.52 94.616 85.88 94.088 86.6C93.576 87.304 93.304 88 93.272 88.688V93.632H95.24V95H89.72V93.632H91.592V85.688H89.696V84.32H93.272V86.312C93.624 85.672 94.096 85.144 94.688 84.728C95.28 84.312 96 84.104 96.848 84.104C97.68 84.104 98.4 84.312 99.008 84.728C99.632 85.144 100.056 85.792 100.28 86.672C100.6 85.92 101.072 85.304 101.696 84.824C102.336 84.344 103.12 84.104 104.048 84.104C105.072 84.104 105.92 84.424 106.592 85.064C107.28 85.704 107.624 86.736 107.624 88.16V93.632H109.496V95ZM120.159 91.928C120.015 92.84 119.559 93.624 118.791 94.28C118.023 94.92 116.983 95.24 115.671 95.24C114.167 95.24 112.951 94.768 112.023 93.824C111.095 92.88 110.631 91.544 110.631 89.816C110.631 88.152 111.071 86.784 111.951 85.712C112.831 84.64 114.023 84.104 115.527 84.104C116.999 84.104 118.119 84.568 118.887 85.496C119.655 86.424 120.047 87.52 120.063 88.784C120.063 89.2 120.015 89.624 119.919 90.056H112.407C112.503 92.552 113.631 93.8 115.791 93.8C116.639 93.8 117.303 93.6 117.783 93.2C118.263 92.8 118.583 92.272 118.743 91.616L120.159 91.928ZM118.287 88.808C118.367 88.008 118.175 87.256 117.711 86.552C117.263 85.848 116.519 85.496 115.479 85.496C114.487 85.496 113.759 85.824 113.295 86.48C112.831 87.136 112.543 87.912 112.431 88.808H118.287ZM129.776 92.12C129.488 94.2 128.36 95.24 126.392 95.24C125.32 95.24 124.496 94.936 123.92 94.328C123.36 93.72 123.08 92.896 123.08 91.856V85.664H121.352V84.32H123.08V80.888H124.76V84.32H128.936V85.664H124.76V91.64C124.76 92.28 124.896 92.8 125.168 93.2C125.456 93.584 125.92 93.776 126.56 93.776C126.976 93.776 127.36 93.648 127.712 93.392C128.08 93.136 128.344 92.576 128.504 91.712L129.776 92.12ZM143.122 95H137.698V93.632H139.57V88.664C139.57 87.512 139.33 86.704 138.85 86.24C138.386 85.76 137.786 85.52 137.05 85.52C136.122 85.52 135.362 85.84 134.77 86.48C134.194 87.104 133.89 87.808 133.858 88.592V93.632H135.706V95H130.306V93.632H132.154V79.856H130.306V78.488H133.858V86.24C134.642 84.816 135.89 84.104 137.602 84.104C138.642 84.104 139.514 84.424 140.218 85.064C140.922 85.704 141.274 86.736 141.274 88.16V93.632H143.122V95ZM154.752 89.648C154.752 91.264 154.272 92.6 153.312 93.656C152.352 94.712 151.048 95.24 149.4 95.24C147.784 95.24 146.512 94.728 145.584 93.704C144.672 92.68 144.216 91.36 144.216 89.744C144.216 88.192 144.664 86.864 145.56 85.76C146.456 84.64 147.768 84.08 149.496 84.08C151.24 84.08 152.552 84.632 153.432 85.736C154.312 86.824 154.752 88.128 154.752 89.648ZM152.976 89.624C152.976 88.408 152.664 87.424 152.04 86.672C151.432 85.904 150.568 85.52 149.448 85.52C148.328 85.52 147.464 85.912 146.856 86.696C146.264 87.48 145.968 88.464 145.968 89.648C145.968 90.816 146.264 91.8 146.856 92.6C147.448 93.4 148.312 93.8 149.448 93.8C150.584 93.8 151.456 93.408 152.064 92.624C152.672 91.824 152.976 90.824 152.976 89.624ZM168.473 95H164.945V92.84C164.593 93.48 164.113 94.04 163.505 94.52C162.897 95 162.105 95.24 161.129 95.24C159.753 95.24 158.641 94.776 157.793 93.848C156.961 92.904 156.545 91.6 156.545 89.936C156.545 88.512 156.913 87.184 157.649 85.952C158.385 84.72 159.625 84.104 161.369 84.104C163.033 84.104 164.225 84.752 164.945 86.048V79.856H162.353V78.488H166.625V93.632H168.473V95ZM164.945 90.272V88.568C164.913 87.672 164.585 86.944 163.961 86.384C163.337 85.824 162.601 85.544 161.753 85.544C160.569 85.544 159.697 85.976 159.137 86.84C158.593 87.704 158.321 88.696 158.321 89.816C158.321 91.128 158.625 92.12 159.233 92.792C159.857 93.464 160.633 93.8 161.561 93.8C162.521 93.8 163.313 93.416 163.937 92.648C164.577 91.864 164.913 91.072 164.945 90.272Z" fill="#9DBEDF"/>
<path d="M194.5 23C193.672 23 193 23.6716 193 24.5C193 25.3284 193.672 26 194.5 26V23ZM215.561 25.5607C216.146 24.9749 216.146 24.0251 215.561 23.4393L206.015 13.8934C205.429 13.3076 204.479 13.3076 203.893 13.8934C203.308 14.4792 203.308 15.4289 203.893 16.0147L212.379 24.5L203.893 32.9853C203.308 33.5711 203.308 34.5208 203.893 35.1066C204.479 35.6924 205.429 35.6924 206.015 35.1066L215.561 25.5607ZM194.5 26L214.5 26V23L194.5 23V26Z" fill="black"/>
<path d="M242.492 20.272V18.232C242.492 16.68 242.404 15.552 242.228 14.848C242.068 14.128 241.684 13.768 241.076 13.768C240.724 13.768 240.436 13.872 240.212 14.08C240.004 14.272 239.852 14.6 239.756 15.064C239.612 15.784 239.54 16.88 239.54 18.352V20.224C239.54 21.968 239.588 23.016 239.684 23.368C239.796 23.72 239.908 24.008 240.02 24.232C240.196 24.616 240.54 24.808 241.052 24.808C241.676 24.808 242.084 24.448 242.276 23.728C242.42 23.216 242.492 22.064 242.492 20.272ZM241.004 25.24C239.004 25.24 237.492 24.728 236.468 23.704C235.444 22.68 234.932 21.216 234.932 19.312C234.932 17.392 235.476 15.92 236.564 14.896C237.668 13.856 239.212 13.336 241.196 13.336C243.18 13.336 244.66 13.816 245.636 14.776C246.612 15.72 247.1 17.168 247.1 19.12C247.1 23.2 245.068 25.24 241.004 25.24ZM256.531 18.544C256.531 16.896 256.451 15.792 256.291 15.232C256.131 14.656 255.819 14.368 255.355 14.368C254.891 14.368 254.475 14.656 254.107 15.232C253.739 15.808 253.555 16.6 253.555 17.608V22.072C253.555 22.76 253.691 23.344 253.963 23.824C254.251 24.304 254.651 24.544 255.163 24.544C255.691 24.544 256.051 24.192 256.243 23.488C256.435 22.784 256.531 21.552 256.531 19.792V18.544ZM253.555 7V15.4C254.163 14.024 255.203 13.336 256.675 13.336C259.667 13.336 261.163 15.328 261.163 19.312C261.163 21.344 260.747 22.84 259.915 23.8C259.099 24.76 257.867 25.24 256.219 25.24C255.387 25.24 254.747 25.112 254.299 24.856C253.867 24.6 253.571 24.176 253.411 23.584L253.243 25H247.771V24.568H249.091V7.432H247.771V7H253.555ZM267.665 13.576V22.936C267.665 25.56 267.209 27.56 266.297 28.936C265.401 30.312 263.929 31 261.881 31C260.553 31 259.585 30.736 258.977 30.208C258.353 29.68 258.041 29.064 258.041 28.36C258.041 27.656 258.249 27.112 258.665 26.728C259.081 26.36 259.601 26.176 260.225 26.176C260.849 26.176 261.321 26.344 261.641 26.68C261.945 27.032 262.097 27.416 262.097 27.832C262.097 28.248 262.049 28.648 261.953 29.032H261.041C260.785 29.464 260.753 29.832 260.945 30.136C261.121 30.44 261.449 30.592 261.929 30.592C262.425 30.592 262.761 30.312 262.937 29.752C263.113 29.208 263.201 28.072 263.201 26.344V14.008H261.641V13.576H267.665ZM265.385 11.92C264.537 11.92 263.929 11.704 263.561 11.272C263.209 10.84 263.033 10.304 263.033 9.664C263.033 9.024 263.225 8.496 263.609 8.08C264.009 7.664 264.609 7.456 265.409 7.456C266.209 7.456 266.817 7.648 267.233 8.032C267.649 8.4 267.857 8.936 267.857 9.64C267.857 10.328 267.657 10.88 267.257 11.296C266.857 11.712 266.233 11.92 265.385 11.92ZM275.646 25.24C273.582 25.24 272.03 24.712 270.99 23.656C269.966 22.584 269.454 21.104 269.454 19.216C269.454 17.312 270.03 15.856 271.182 14.848C272.35 13.84 273.83 13.336 275.622 13.336C279.254 13.336 280.998 15.16 280.854 18.808H274.086V19.744C274.086 21.312 274.286 22.496 274.686 23.296C275.086 24.096 275.782 24.496 276.774 24.496C278.63 24.496 279.846 23.504 280.422 21.52L280.854 21.592C280.55 22.744 279.998 23.64 279.198 24.28C278.414 24.92 277.23 25.24 275.646 25.24ZM274.11 18.328H276.582V17.152C276.582 15.856 276.502 14.976 276.342 14.512C276.198 14.032 275.894 13.792 275.43 13.792C274.982 13.792 274.646 14.048 274.422 14.56C274.214 15.056 274.11 15.92 274.11 17.152V18.328ZM288.429 13.768C287.725 13.768 287.221 14.152 286.917 14.92C286.613 15.688 286.461 16.96 286.461 18.736V19.984C286.461 21.568 286.637 22.704 286.989 23.392C287.341 24.08 287.989 24.424 288.933 24.424C289.877 24.424 290.629 24.104 291.189 23.464C291.749 22.824 292.109 22.096 292.269 21.28L292.701 21.328C292.397 22.704 291.837 23.696 291.021 24.304C290.189 24.928 289.045 25.24 287.589 25.24C285.733 25.24 284.309 24.744 283.317 23.752C282.325 22.744 281.829 21.28 281.829 19.36C281.829 17.424 282.389 15.936 283.509 14.896C284.645 13.856 286.221 13.336 288.237 13.336C289.661 13.336 290.749 13.616 291.501 14.176C292.253 14.72 292.629 15.408 292.629 16.24C292.629 17.072 292.445 17.68 292.077 18.064C291.725 18.448 291.229 18.64 290.589 18.64C289.965 18.64 289.461 18.472 289.077 18.136C288.693 17.8 288.501 17.304 288.501 16.648C288.501 16.36 288.541 16.072 288.621 15.784H289.413C289.525 15.464 289.581 15.176 289.581 14.92C289.581 14.152 289.197 13.768 288.429 13.768ZM294.51 21.568V14.008H293.19V13.576H294.51V10.48L298.974 9.376V13.576H302.094V14.008H298.974V22.096C298.974 22.848 299.046 23.4 299.19 23.752C299.35 24.104 299.67 24.28 300.15 24.28C300.63 24.28 301.046 24.04 301.398 23.56C301.766 23.08 302.006 22.424 302.118 21.592L302.526 21.64C302.398 22.744 302.046 23.624 301.47 24.28C300.894 24.92 299.942 25.24 298.614 25.24C297.286 25.24 296.27 24.976 295.566 24.448C294.862 23.92 294.51 22.96 294.51 21.568ZM306.284 11.92C305.436 11.92 304.828 11.704 304.46 11.272C304.108 10.84 303.932 10.304 303.932 9.664C303.932 9.024 304.124 8.496 304.508 8.08C304.908 7.664 305.508 7.456 306.308 7.456C307.108 7.456 307.716 7.648 308.132 8.032C308.548 8.4 308.756 8.936 308.756 9.64C308.756 10.328 308.556 10.88 308.156 11.296C307.756 11.712 307.132 11.92 306.284 11.92ZM302.66 13.576H308.54V24.568H309.884V25H302.756V24.568H304.076V14.008H302.66V13.576ZM309.406 14.008V13.576H316.582V14.008H315.07L317.95 21.976L320.542 14.008H318.934V13.576H322.174V14.008H321.118L317.566 25H314.83L310.39 14.008H309.406ZM328.122 25.24C326.058 25.24 324.506 24.712 323.466 23.656C322.442 22.584 321.93 21.104 321.93 19.216C321.93 17.312 322.506 15.856 323.658 14.848C324.826 13.84 326.306 13.336 328.098 13.336C331.73 13.336 333.474 15.16 333.33 18.808H326.562V19.744C326.562 21.312 326.762 22.496 327.162 23.296C327.562 24.096 328.258 24.496 329.25 24.496C331.106 24.496 332.322 23.504 332.898 21.52L333.33 21.592C333.026 22.744 332.474 23.64 331.674 24.28C330.89 24.92 329.706 25.24 328.122 25.24ZM326.586 18.328H329.058V17.152C329.058 15.856 328.978 14.976 328.818 14.512C328.674 14.032 328.37 13.792 327.906 13.792C327.458 13.792 327.122 14.048 326.898 14.56C326.69 15.056 326.586 15.92 326.586 17.152V18.328Z" fill="#ABB767"/>
<path d="M286 42C286 41.1716 285.328 40.5 284.5 40.5C283.672 40.5 283 41.1716 283 42L286 42ZM283.439 63.0607C284.025 63.6464 284.975 63.6464 285.561 63.0607L295.107 53.5147C295.692 52.9289 295.692 51.9792 295.107 51.3934C294.521 50.8076 293.571 50.8076 292.985 51.3934L284.5 59.8787L276.015 51.3934C275.429 50.8076 274.479 50.8076 273.893 51.3934C273.308 51.9792 273.308 52.9289 273.893 53.5147L283.439 63.0607ZM283 42L283 62L286 62L286 42L283 42Z" fill="black"/>
<path d="M256.576 91.904C256.576 92.944 256.136 93.76 255.256 94.352C254.392 94.944 253.32 95.24 252.04 95.24C251.288 95.24 250.536 95.144 249.784 94.952C249.048 94.744 248.448 94.488 247.984 94.184L248.32 91.76L249.664 91.904L249.592 93.32C250.328 93.672 251.12 93.848 251.968 93.848C252.72 93.848 253.384 93.704 253.96 93.416C254.552 93.112 254.848 92.656 254.848 92.048C254.848 91.456 254.624 91.04 254.176 90.8C253.728 90.56 253.168 90.384 252.496 90.272C251.84 90.16 251.176 90.024 250.504 89.864C249.832 89.704 249.272 89.432 248.824 89.048C248.376 88.648 248.152 88.032 248.152 87.2C248.152 86.064 248.568 85.264 249.4 84.8C250.232 84.336 251.136 84.104 252.112 84.104C252.848 84.104 253.536 84.2 254.176 84.392C254.832 84.584 255.384 84.816 255.832 85.088L256.096 87.584L254.704 87.752L254.44 86.024C253.768 85.672 253.04 85.496 252.256 85.496C251.584 85.496 251.032 85.624 250.6 85.88C250.168 86.136 249.952 86.536 249.952 87.08C249.952 87.64 250.176 88.04 250.624 88.28C251.072 88.504 251.624 88.672 252.28 88.784C252.936 88.88 253.592 89.008 254.248 89.168C254.904 89.328 255.456 89.616 255.904 90.032C256.352 90.432 256.576 91.056 256.576 91.904ZM270.627 95H267.027V92.984C266.691 93.656 266.195 94.2 265.539 94.616C264.899 95.032 264.155 95.24 263.307 95.24C262.267 95.24 261.387 94.92 260.667 94.28C259.963 93.624 259.611 92.584 259.611 91.16V85.688H257.739V84.32H261.291V90.68C261.291 91.832 261.531 92.64 262.011 93.104C262.491 93.568 263.107 93.8 263.859 93.8C264.771 93.8 265.515 93.456 266.091 92.768C266.683 92.08 266.995 91.352 267.027 90.584V85.688H264.795V84.32H268.707V93.632H270.627V95ZM282.881 89.384C282.881 90.328 282.721 91.248 282.401 92.144C282.081 93.04 281.569 93.784 280.865 94.376C280.161 94.952 279.249 95.24 278.129 95.24C276.337 95.24 275.089 94.568 274.385 93.224L274.145 95H272.465C272.529 94.536 272.601 94.032 272.681 93.488C272.761 92.944 272.801 92.408 272.801 91.88V79.856H270.953V78.488H274.481V86.528C274.801 85.872 275.257 85.304 275.849 84.824C276.457 84.344 277.273 84.104 278.297 84.104C279.625 84.104 280.721 84.56 281.585 85.472C282.449 86.384 282.881 87.688 282.881 89.384ZM281.105 89.552C281.105 88.224 280.793 87.224 280.169 86.552C279.545 85.88 278.785 85.544 277.889 85.544C276.865 85.544 276.049 85.92 275.441 86.672C274.833 87.424 274.513 88.192 274.481 88.976V90.584C274.481 91.48 274.793 92.24 275.417 92.864C276.057 93.488 276.841 93.8 277.769 93.8C278.937 93.8 279.785 93.368 280.313 92.504C280.841 91.64 281.105 90.656 281.105 89.552ZM286.221 81.56V79.376H288.045V81.56H286.221ZM288.045 95.312C288.045 97.344 287.605 98.72 286.725 99.44C285.861 100.176 284.773 100.488 283.461 100.376L283.413 99.08C283.861 99.08 284.309 99.008 284.757 98.864C285.205 98.72 285.581 98.376 285.885 97.832C286.189 97.304 286.341 96.464 286.341 95.312V85.688H283.965V84.32H288.045V95.312ZM300.284 91.928C300.14 92.84 299.684 93.624 298.916 94.28C298.148 94.92 297.108 95.24 295.796 95.24C294.292 95.24 293.076 94.768 292.148 93.824C291.22 92.88 290.756 91.544 290.756 89.816C290.756 88.152 291.196 86.784 292.076 85.712C292.956 84.64 294.148 84.104 295.652 84.104C297.124 84.104 298.244 84.568 299.012 85.496C299.78 86.424 300.172 87.52 300.188 88.784C300.188 89.2 300.14 89.624 300.044 90.056H292.532C292.628 92.552 293.756 93.8 295.916 93.8C296.764 93.8 297.428 93.6 297.908 93.2C298.388 92.8 298.708 92.272 298.868 91.616L300.284 91.928ZM298.412 88.808C298.492 88.008 298.3 87.256 297.836 86.552C297.388 85.848 296.644 85.496 295.604 85.496C294.612 85.496 293.884 85.824 293.42 86.48C292.956 87.136 292.668 87.912 292.556 88.808H298.412ZM311.389 91.4C311.245 92.328 310.821 93.2 310.117 94.016C309.429 94.832 308.349 95.24 306.877 95.24C305.405 95.24 304.229 94.768 303.349 93.824C302.469 92.864 302.029 91.528 302.029 89.816C302.029 88.344 302.445 87.024 303.277 85.856C304.109 84.688 305.357 84.104 307.021 84.104C307.725 84.104 308.373 84.184 308.965 84.344C309.557 84.504 310.125 84.792 310.669 85.208L311.077 87.776L309.685 87.944L309.277 86.144C308.637 85.744 307.877 85.544 306.997 85.544C305.861 85.544 305.045 85.952 304.549 86.768C304.053 87.584 303.805 88.568 303.805 89.72C303.805 91 304.085 92 304.645 92.72C305.205 93.44 306.013 93.8 307.069 93.8C308.669 93.8 309.629 92.896 309.949 91.088L311.389 91.4ZM320.987 92.12C320.699 94.2 319.571 95.24 317.603 95.24C316.531 95.24 315.707 94.936 315.131 94.328C314.571 93.72 314.291 92.896 314.291 91.856V85.664H312.563V84.32H314.291V80.888H315.971V84.32H320.147V85.664H315.971V91.64C315.971 92.28 316.107 92.8 316.379 93.2C316.667 93.584 317.131 93.776 317.771 93.776C318.187 93.776 318.571 93.648 318.923 93.392C319.291 93.136 319.555 92.576 319.715 91.712L320.987 92.12Z" fill="#C38650"/>
<path d="M286 111C286 110.172 285.328 109.5 284.5 109.5C283.672 109.5 283 110.172 283 111L286 111ZM283.439 132.061C284.025 132.646 284.975 132.646 285.561 132.061L295.107 122.515C295.692 121.929 295.692 120.979 295.107 120.393C294.521 119.808 293.571 119.808 292.985 120.393L284.5 128.879L276.015 120.393C275.429 119.808 274.479 119.808 273.893 120.393C273.308 120.979 273.308 121.929 273.893 122.515L283.439 132.061ZM283 111L283 131L286 131L286 111L283 111Z" fill="black"/>
<path d="M239.944 154.136C240.504 153.768 241.096 153.504 241.72 153.344C242.344 153.184 243.008 153.104 243.712 153.104C246.256 153.104 247.528 154.296 247.528 156.68V161.768C247.528 162.536 247.832 162.92 248.44 162.92C248.712 162.92 248.952 162.872 249.16 162.776L249.184 163.88C248.752 164.12 248.288 164.24 247.792 164.24C246.528 164.24 245.88 163.52 245.848 162.08V162.032C245.512 162.608 245.032 163.12 244.408 163.568C243.8 164.016 243.064 164.24 242.2 164.24C241.496 164.24 240.776 164.024 240.04 163.592C239.32 163.16 238.96 162.376 238.96 161.24C238.96 159.896 239.488 159.016 240.544 158.6C241.616 158.168 242.752 157.952 243.952 157.952C244.272 157.952 244.592 157.96 244.912 157.976C245.248 157.992 245.56 158.016 245.848 158.048V157.088C245.848 156.32 245.68 155.696 245.344 155.216C245.024 154.736 244.384 154.496 243.424 154.496C242.64 154.496 241.952 154.64 241.36 154.928L240.952 156.776L239.56 156.608L239.944 154.136ZM245.848 159.992V159.176C245.544 159.16 245.224 159.136 244.888 159.104C244.552 159.072 244.208 159.056 243.856 159.056C243.056 159.056 242.328 159.184 241.672 159.44C241.032 159.68 240.712 160.216 240.712 161.048C240.712 161.736 240.928 162.208 241.36 162.464C241.792 162.72 242.24 162.848 242.704 162.848C243.44 162.848 244.128 162.592 244.768 162.08C245.424 161.568 245.784 160.872 245.848 159.992ZM258.386 161.12C258.098 163.2 256.97 164.24 255.002 164.24C253.93 164.24 253.106 163.936 252.53 163.328C251.97 162.72 251.69 161.896 251.69 160.856V154.664H249.962V153.32H251.69V149.888H253.37V153.32H257.546V154.664H253.37V160.64C253.37 161.28 253.506 161.8 253.778 162.2C254.066 162.584 254.53 162.776 255.17 162.776C255.586 162.776 255.97 162.648 256.322 162.392C256.69 162.136 256.954 161.576 257.114 160.712L258.386 161.12ZM267.292 161.12C267.004 163.2 265.876 164.24 263.908 164.24C262.836 164.24 262.012 163.936 261.436 163.328C260.876 162.72 260.596 161.896 260.596 160.856V154.664H258.868V153.32H260.596V149.888H262.276V153.32H266.452V154.664H262.276V160.64C262.276 161.28 262.412 161.8 262.684 162.2C262.972 162.584 263.436 162.776 264.076 162.776C264.492 162.776 264.876 162.648 265.228 162.392C265.596 162.136 265.86 161.576 266.02 160.712L267.292 161.12ZM274.23 153.128C274.998 153.128 275.606 153.312 276.054 153.68L276.462 156.368L275.094 156.536L274.686 154.712C274.414 154.616 274.142 154.568 273.87 154.568C273.246 154.568 272.726 154.832 272.31 155.36C271.894 155.872 271.686 156.544 271.686 157.376V162.632H274.158V164H268.134V162.632H270.006V154.688H268.086V153.32H271.59V155.24C271.798 154.648 272.134 154.152 272.598 153.752C273.078 153.336 273.622 153.128 274.23 153.128ZM280.012 150.56V148.376H281.836V150.56H280.012ZM283.732 164H278.308V162.632H280.18V154.688H278.26V153.32H281.86V162.632H283.732V164ZM296.123 158.384C296.123 159.328 295.963 160.248 295.643 161.144C295.323 162.04 294.811 162.784 294.107 163.376C293.403 163.952 292.491 164.24 291.371 164.24C289.579 164.24 288.331 163.568 287.627 162.224L287.387 164H285.707C285.771 163.536 285.843 163.032 285.923 162.488C286.003 161.944 286.043 161.408 286.043 160.88V148.856H284.195V147.488H287.723V155.528C288.043 154.872 288.499 154.304 289.091 153.824C289.699 153.344 290.515 153.104 291.539 153.104C292.867 153.104 293.963 153.56 294.827 154.472C295.691 155.384 296.123 156.688 296.123 158.384ZM294.347 158.552C294.347 157.224 294.035 156.224 293.411 155.552C292.787 154.88 292.027 154.544 291.131 154.544C290.107 154.544 289.291 154.92 288.683 155.672C288.075 156.424 287.755 157.192 287.723 157.976V159.584C287.723 160.48 288.035 161.24 288.659 161.864C289.299 162.488 290.083 162.8 291.011 162.8C292.179 162.8 293.027 162.368 293.555 161.504C294.083 160.64 294.347 159.656 294.347 158.552ZM310.143 164H306.543V161.984C306.207 162.656 305.711 163.2 305.055 163.616C304.415 164.032 303.671 164.24 302.823 164.24C301.783 164.24 300.903 163.92 300.183 163.28C299.479 162.624 299.127 161.584 299.127 160.16V154.688H297.255V153.32H300.807V159.68C300.807 160.832 301.047 161.64 301.527 162.104C302.007 162.568 302.623 162.8 303.375 162.8C304.287 162.8 305.031 162.456 305.607 161.768C306.199 161.08 306.511 160.352 306.543 159.584V154.688H304.311V153.32H308.223V162.632H310.143V164ZM319.276 161.12C318.988 163.2 317.86 164.24 315.892 164.24C314.82 164.24 313.996 163.936 313.42 163.328C312.86 162.72 312.58 161.896 312.58 160.856V154.664H310.852V153.32H312.58V149.888H314.26V153.32H318.436V154.664H314.26V160.64C314.26 161.28 314.396 161.8 314.668 162.2C314.956 162.584 315.42 162.776 316.06 162.776C316.476 162.776 316.86 162.648 317.212 162.392C317.58 162.136 317.844 161.576 318.004 160.712L319.276 161.12ZM329.838 160.928C329.694 161.84 329.238 162.624 328.47 163.28C327.702 163.92 326.662 164.24 325.35 164.24C323.846 164.24 322.63 163.768 321.702 162.824C320.774 161.88 320.31 160.544 320.31 158.816C320.31 157.152 320.75 155.784 321.63 154.712C322.51 153.64 323.702 153.104 325.206 153.104C326.678 153.104 327.798 153.568 328.566 154.496C329.334 155.424 329.726 156.52 329.742 157.784C329.742 158.2 329.694 158.624 329.598 159.056H322.086C322.182 161.552 323.31 162.8 325.47 162.8C326.318 162.8 326.982 162.6 327.462 162.2C327.942 161.8 328.262 161.272 328.422 160.616L329.838 160.928ZM327.966 157.808C328.046 157.008 327.854 156.256 327.39 155.552C326.942 154.848 326.198 154.496 325.158 154.496C324.166 154.496 323.438 154.824 322.974 155.48C322.51 156.136 322.222 156.912 322.11 157.808H327.966Z" fill="#E9A970"/>
<path d="M20.6543 280.184H12.4277V303H9.07031V280.184H0.861328V277.406H20.6543V280.184ZM30.0762 303.352C27.498 303.352 25.4004 302.508 23.7832 300.82C22.166 299.121 21.3574 296.854 21.3574 294.018V293.42C21.3574 291.533 21.7148 289.852 22.4297 288.375C23.1562 286.887 24.1641 285.727 25.4531 284.895C26.7539 284.051 28.1602 283.629 29.6719 283.629C32.1445 283.629 34.0664 284.443 35.4375 286.072C36.8086 287.701 37.4941 290.033 37.4941 293.068V294.422H24.6094C24.6562 296.297 25.2012 297.814 26.2441 298.975C27.2988 300.123 28.6348 300.697 30.252 300.697C31.4004 300.697 32.373 300.463 33.1699 299.994C33.9668 299.525 34.6641 298.904 35.2617 298.131L37.248 299.678C35.6543 302.127 33.2637 303.352 30.0762 303.352ZM29.6719 286.301C28.3594 286.301 27.2578 286.781 26.3672 287.742C25.4766 288.691 24.9258 290.027 24.7148 291.75H34.2422V291.504C34.1484 289.852 33.7031 288.574 32.9062 287.672C32.1094 286.758 31.0312 286.301 29.6719 286.301ZM44.8066 303H41.5547V276H44.8066V303ZM53.5605 303H50.3086V276H53.5605V303ZM79.4531 303C79.2656 302.625 79.1133 301.957 78.9961 300.996C77.4844 302.566 75.6797 303.352 73.582 303.352C71.707 303.352 70.166 302.824 68.959 301.77C67.7637 300.703 67.166 299.355 67.166 297.727C67.166 295.746 67.916 294.211 69.416 293.121C70.9277 292.02 73.0488 291.469 75.7793 291.469H78.9434V289.975C78.9434 288.838 78.6035 287.936 77.9238 287.268C77.2441 286.588 76.2422 286.248 74.918 286.248C73.7578 286.248 72.7852 286.541 72 287.127C71.2148 287.713 70.8223 288.422 70.8223 289.254H67.5527C67.5527 288.305 67.8867 287.391 68.5547 286.512C69.2344 285.621 70.1484 284.918 71.2969 284.402C72.457 283.887 73.7285 283.629 75.1113 283.629C77.3027 283.629 79.0195 284.18 80.2617 285.281C81.5039 286.371 82.1484 287.877 82.1953 289.799V298.553C82.1953 300.299 82.418 301.688 82.8633 302.719V303H79.4531ZM74.0566 300.521C75.0762 300.521 76.043 300.258 76.957 299.73C77.8711 299.203 78.5332 298.518 78.9434 297.674V293.771H76.3945C72.4102 293.771 70.418 294.938 70.418 297.27C70.418 298.289 70.7578 299.086 71.4375 299.66C72.1172 300.234 72.9902 300.521 74.0566 300.521ZM188.842 303V286.494H185.836V283.98H188.842V282.029C188.842 279.99 189.387 278.414 190.477 277.301C191.566 276.188 193.107 275.631 195.1 275.631C195.85 275.631 196.594 275.73 197.332 275.93L197.156 278.566C196.605 278.461 196.02 278.408 195.398 278.408C194.344 278.408 193.529 278.719 192.955 279.34C192.381 279.949 192.094 280.828 192.094 281.977V283.98H196.154V286.494H192.094V303H188.842ZM208.951 286.898C208.459 286.816 207.926 286.775 207.352 286.775C205.219 286.775 203.771 287.684 203.01 289.5V303H199.758V283.98H202.922L202.975 286.178C204.041 284.479 205.553 283.629 207.51 283.629C208.143 283.629 208.623 283.711 208.951 283.875V286.898ZM210.744 293.314C210.744 291.451 211.107 289.775 211.834 288.287C212.572 286.799 213.592 285.65 214.893 284.842C216.205 284.033 217.699 283.629 219.375 283.629C221.965 283.629 224.057 284.525 225.65 286.318C227.256 288.111 228.059 290.496 228.059 293.473V293.701C228.059 295.553 227.701 297.217 226.986 298.693C226.283 300.158 225.27 301.301 223.945 302.121C222.633 302.941 221.121 303.352 219.41 303.352C216.832 303.352 214.74 302.455 213.135 300.662C211.541 298.869 210.744 296.496 210.744 293.543V293.314ZM214.014 293.701C214.014 295.811 214.5 297.504 215.473 298.781C216.457 300.059 217.77 300.697 219.41 300.697C221.062 300.697 222.375 300.053 223.348 298.764C224.32 297.463 224.807 295.646 224.807 293.314C224.807 291.229 224.309 289.541 223.312 288.252C222.328 286.951 221.016 286.301 219.375 286.301C217.77 286.301 216.475 286.939 215.49 288.217C214.506 289.494 214.014 291.322 214.014 293.701ZM235.195 283.98L235.283 286.09C236.678 284.449 238.559 283.629 240.926 283.629C243.586 283.629 245.396 284.648 246.357 286.688C246.99 285.773 247.811 285.035 248.818 284.473C249.838 283.91 251.039 283.629 252.422 283.629C256.594 283.629 258.715 285.838 258.785 290.256V303H255.533V290.449C255.533 289.09 255.223 288.076 254.602 287.408C253.98 286.729 252.938 286.389 251.473 286.389C250.266 286.389 249.264 286.752 248.467 287.479C247.67 288.193 247.207 289.16 247.078 290.379V303H243.809V290.537C243.809 287.771 242.455 286.389 239.748 286.389C237.615 286.389 236.156 287.297 235.371 289.113V303H232.119V283.98H235.195ZM284.379 303C284.191 302.625 284.039 301.957 283.922 300.996C282.41 302.566 280.605 303.352 278.508 303.352C276.633 303.352 275.092 302.824 273.885 301.77C272.689 300.703 272.092 299.355 272.092 297.727C272.092 295.746 272.842 294.211 274.342 293.121C275.854 292.02 277.975 291.469 280.705 291.469H283.869V289.975C283.869 288.838 283.529 287.936 282.85 287.268C282.17 286.588 281.168 286.248 279.844 286.248C278.684 286.248 277.711 286.541 276.926 287.127C276.141 287.713 275.748 288.422 275.748 289.254H272.479C272.479 288.305 272.812 287.391 273.48 286.512C274.16 285.621 275.074 284.918 276.223 284.402C277.383 283.887 278.654 283.629 280.037 283.629C282.229 283.629 283.945 284.18 285.188 285.281C286.43 286.371 287.074 287.877 287.121 289.799V298.553C287.121 300.299 287.344 301.688 287.789 302.719V303H284.379ZM278.982 300.521C280.002 300.521 280.969 300.258 281.883 299.73C282.797 299.203 283.459 298.518 283.869 297.674V293.771H281.32C277.336 293.771 275.344 294.938 275.344 297.27C275.344 298.289 275.684 299.086 276.363 299.66C277.043 300.234 277.916 300.521 278.982 300.521ZM1.66992 335.332C1.66992 332.414 2.36133 330.07 3.74414 328.301C5.12695 326.52 6.9375 325.629 9.17578 325.629C11.4023 325.629 13.166 326.391 14.4668 327.914V318H17.7188V345H14.7305L14.5723 342.961C13.2715 344.555 11.4609 345.352 9.14062 345.352C6.9375 345.352 5.13867 344.449 3.74414 342.645C2.36133 340.84 1.66992 338.484 1.66992 335.578V335.332ZM4.92188 335.701C4.92188 337.857 5.36719 339.545 6.25781 340.764C7.14844 341.982 8.37891 342.592 9.94922 342.592C12.0117 342.592 13.5176 341.666 14.4668 339.814V331.078C13.4941 329.285 12 328.389 9.98438 328.389C8.39062 328.389 7.14844 329.004 6.25781 330.234C5.36719 331.465 4.92188 333.287 4.92188 335.701ZM26.3145 345H23.0625V325.98H26.3145V345ZM22.7988 320.936C22.7988 320.408 22.957 319.963 23.2734 319.6C23.6016 319.236 24.082 319.055 24.7148 319.055C25.3477 319.055 25.8281 319.236 26.1562 319.6C26.4844 319.963 26.6484 320.408 26.6484 320.936C26.6484 321.463 26.4844 321.902 26.1562 322.254C25.8281 322.605 25.3477 322.781 24.7148 322.781C24.082 322.781 23.6016 322.605 23.2734 322.254C22.957 321.902 22.7988 321.463 22.7988 320.936ZM33.1348 345V328.494H30.1289V325.98H33.1348V324.029C33.1348 321.99 33.6797 320.414 34.7695 319.301C35.8594 318.188 37.4004 317.631 39.3926 317.631C40.1426 317.631 40.8867 317.73 41.625 317.93L41.4492 320.566C40.8984 320.461 40.3125 320.408 39.6914 320.408C38.6367 320.408 37.8223 320.719 37.248 321.34C36.6738 321.949 36.3867 322.828 36.3867 323.977V325.98H40.4473V328.494H36.3867V345H33.1348ZM45.6504 345V328.494H42.6445V325.98H45.6504V324.029C45.6504 321.99 46.1953 320.414 47.2852 319.301C48.375 318.188 49.916 317.631 51.9082 317.631C52.6582 317.631 53.4023 317.73 54.1406 317.93L53.9648 320.566C53.4141 320.461 52.8281 320.408 52.207 320.408C51.1523 320.408 50.3379 320.719 49.7637 321.34C49.1895 321.949 48.9023 322.828 48.9023 323.977V325.98H52.9629V328.494H48.9023V345H45.6504ZM64.0371 345.352C61.459 345.352 59.3613 344.508 57.7441 342.82C56.127 341.121 55.3184 338.854 55.3184 336.018V335.42C55.3184 333.533 55.6758 331.852 56.3906 330.375C57.1172 328.887 58.125 327.727 59.4141 326.895C60.7148 326.051 62.1211 325.629 63.6328 325.629C66.1055 325.629 68.0273 326.443 69.3984 328.072C70.7695 329.701 71.4551 332.033 71.4551 335.068V336.422H58.5703C58.6172 338.297 59.1621 339.814 60.2051 340.975C61.2598 342.123 62.5957 342.697 64.2129 342.697C65.3613 342.697 66.334 342.463 67.1309 341.994C67.9277 341.525 68.625 340.904 69.2227 340.131L71.209 341.678C69.6152 344.127 67.2246 345.352 64.0371 345.352ZM63.6328 328.301C62.3203 328.301 61.2188 328.781 60.3281 329.742C59.4375 330.691 58.8867 332.027 58.6758 333.75H68.2031V333.504C68.1094 331.852 67.6641 330.574 66.8672 329.672C66.0703 328.758 64.9922 328.301 63.6328 328.301ZM84.4277 328.898C83.9355 328.816 83.4023 328.775 82.8281 328.775C80.6953 328.775 79.248 329.684 78.4863 331.5V345H75.2344V325.98H78.3984L78.4512 328.178C79.5176 326.479 81.0293 325.629 82.9863 325.629C83.6191 325.629 84.0996 325.711 84.4277 325.875V328.898ZM94.9746 345.352C92.3965 345.352 90.2988 344.508 88.6816 342.82C87.0645 341.121 86.2559 338.854 86.2559 336.018V335.42C86.2559 333.533 86.6133 331.852 87.3281 330.375C88.0547 328.887 89.0625 327.727 90.3516 326.895C91.6523 326.051 93.0586 325.629 94.5703 325.629C97.043 325.629 98.9648 326.443 100.336 328.072C101.707 329.701 102.393 332.033 102.393 335.068V336.422H89.5078C89.5547 338.297 90.0996 339.814 91.1426 340.975C92.1973 342.123 93.5332 342.697 95.1504 342.697C96.2988 342.697 97.2715 342.463 98.0684 341.994C98.8652 341.525 99.5625 340.904 100.16 340.131L102.146 341.678C100.553 344.127 98.1621 345.352 94.9746 345.352ZM94.5703 328.301C93.2578 328.301 92.1562 328.781 91.2656 329.742C90.375 330.691 89.8242 332.027 89.6133 333.75H99.1406V333.504C99.0469 331.852 98.6016 330.574 97.8047 329.672C97.0078 328.758 95.9297 328.301 94.5703 328.301ZM109.248 325.98L109.354 328.371C110.807 326.543 112.705 325.629 115.049 325.629C119.068 325.629 121.096 327.896 121.131 332.432V345H117.879V332.414C117.867 331.043 117.551 330.029 116.93 329.373C116.32 328.717 115.365 328.389 114.064 328.389C113.01 328.389 112.084 328.67 111.287 329.232C110.49 329.795 109.869 330.533 109.424 331.447V345H106.172V325.98H109.248ZM130.447 321.375V325.98H133.998V328.494H130.447V340.289C130.447 341.051 130.605 341.625 130.922 342.012C131.238 342.387 131.777 342.574 132.539 342.574C132.914 342.574 133.43 342.504 134.086 342.363V345C133.23 345.234 132.398 345.352 131.59 345.352C130.137 345.352 129.041 344.912 128.303 344.033C127.564 343.154 127.195 341.906 127.195 340.289V328.494H123.732V325.98H127.195V321.375H130.447ZM145.705 345.352C143.127 345.352 141.029 344.508 139.412 342.82C137.795 341.121 136.986 338.854 136.986 336.018V335.42C136.986 333.533 137.344 331.852 138.059 330.375C138.785 328.887 139.793 327.727 141.082 326.895C142.383 326.051 143.789 325.629 145.301 325.629C147.773 325.629 149.695 326.443 151.066 328.072C152.438 329.701 153.123 332.033 153.123 335.068V336.422H140.238C140.285 338.297 140.83 339.814 141.873 340.975C142.928 342.123 144.264 342.697 145.881 342.697C147.029 342.697 148.002 342.463 148.799 341.994C149.596 341.525 150.293 340.904 150.891 340.131L152.877 341.678C151.283 344.127 148.893 345.352 145.705 345.352ZM145.301 328.301C143.988 328.301 142.887 328.781 141.996 329.742C141.105 330.691 140.555 332.027 140.344 333.75H149.871V333.504C149.777 331.852 149.332 330.574 148.535 329.672C147.738 328.758 146.66 328.301 145.301 328.301ZM368.314 321.375V325.98H371.865V328.494H368.314V340.289C368.314 341.051 368.473 341.625 368.789 342.012C369.105 342.387 369.645 342.574 370.406 342.574C370.781 342.574 371.297 342.504 371.953 342.363V345C371.098 345.234 370.266 345.352 369.457 345.352C368.004 345.352 366.908 344.912 366.17 344.033C365.432 343.154 365.062 341.906 365.062 340.289V328.494H361.6V325.98H365.062V321.375H368.314ZM374.467 335.314C374.467 333.451 374.83 331.775 375.557 330.287C376.295 328.799 377.314 327.65 378.615 326.842C379.928 326.033 381.422 325.629 383.098 325.629C385.688 325.629 387.779 326.525 389.373 328.318C390.979 330.111 391.781 332.496 391.781 335.473V335.701C391.781 337.553 391.424 339.217 390.709 340.693C390.006 342.158 388.992 343.301 387.668 344.121C386.355 344.941 384.844 345.352 383.133 345.352C380.555 345.352 378.463 344.455 376.857 342.662C375.264 340.869 374.467 338.496 374.467 335.543V335.314ZM377.736 335.701C377.736 337.811 378.223 339.504 379.195 340.781C380.18 342.059 381.492 342.697 383.133 342.697C384.785 342.697 386.098 342.053 387.07 340.764C388.043 339.463 388.529 337.646 388.529 335.314C388.529 333.229 388.031 331.541 387.035 330.252C386.051 328.951 384.738 328.301 383.098 328.301C381.492 328.301 380.197 328.939 379.213 330.217C378.229 331.494 377.736 333.322 377.736 335.701ZM112.693 363.375V367.98H116.244V370.494H112.693V382.289C112.693 383.051 112.852 383.625 113.168 384.012C113.484 384.387 114.023 384.574 114.785 384.574C115.16 384.574 115.676 384.504 116.332 384.363V387C115.477 387.234 114.645 387.352 113.836 387.352C112.383 387.352 111.287 386.912 110.549 386.033C109.811 385.154 109.441 383.906 109.441 382.289V370.494H105.979V367.98H109.441V363.375H112.693ZM123.311 370.283C124.752 368.514 126.627 367.629 128.936 367.629C132.955 367.629 134.982 369.896 135.018 374.432V387H131.766V374.414C131.754 373.043 131.438 372.029 130.816 371.373C130.207 370.717 129.252 370.389 127.951 370.389C126.896 370.389 125.971 370.67 125.174 371.232C124.377 371.795 123.756 372.533 123.311 373.447V387H120.059V360H123.311V370.283ZM147.779 387.352C145.201 387.352 143.104 386.508 141.486 384.82C139.869 383.121 139.061 380.854 139.061 378.018V377.42C139.061 375.533 139.418 373.852 140.133 372.375C140.859 370.887 141.867 369.727 143.156 368.895C144.457 368.051 145.863 367.629 147.375 367.629C149.848 367.629 151.77 368.443 153.141 370.072C154.512 371.701 155.197 374.033 155.197 377.068V378.422H142.312C142.359 380.297 142.904 381.814 143.947 382.975C145.002 384.123 146.338 384.697 147.955 384.697C149.104 384.697 150.076 384.463 150.873 383.994C151.67 383.525 152.367 382.904 152.965 382.131L154.951 383.678C153.357 386.127 150.967 387.352 147.779 387.352ZM147.375 370.301C146.062 370.301 144.961 370.781 144.07 371.742C143.18 372.691 142.629 374.027 142.418 375.75H151.945V375.504C151.852 373.852 151.406 372.574 150.609 371.672C149.812 370.758 148.734 370.301 147.375 370.301ZM154.195 429C154.008 428.625 153.855 427.957 153.738 426.996C152.227 428.566 150.422 429.352 148.324 429.352C146.449 429.352 144.908 428.824 143.701 427.77C142.506 426.703 141.908 425.355 141.908 423.727C141.908 421.746 142.658 420.211 144.158 419.121C145.67 418.02 147.791 417.469 150.521 417.469H153.686V415.975C153.686 414.838 153.346 413.936 152.666 413.268C151.986 412.588 150.984 412.248 149.66 412.248C148.5 412.248 147.527 412.541 146.742 413.127C145.957 413.713 145.564 414.422 145.564 415.254H142.295C142.295 414.305 142.629 413.391 143.297 412.512C143.977 411.621 144.891 410.918 146.039 410.402C147.199 409.887 148.471 409.629 149.854 409.629C152.045 409.629 153.762 410.18 155.004 411.281C156.246 412.371 156.891 413.877 156.938 415.799V424.553C156.938 426.299 157.16 427.688 157.605 428.719V429H154.195ZM148.799 426.521C149.818 426.521 150.785 426.258 151.699 425.73C152.613 425.203 153.275 424.518 153.686 423.674V419.771H151.137C147.152 419.771 145.16 420.938 145.16 423.27C145.16 424.289 145.5 425.086 146.18 425.66C146.859 426.234 147.732 426.521 148.799 426.521ZM165.111 409.98L165.217 412.371C166.67 410.543 168.568 409.629 170.912 409.629C174.932 409.629 176.959 411.896 176.994 416.432V429H173.742V416.414C173.73 415.043 173.414 414.029 172.793 413.373C172.184 412.717 171.229 412.389 169.928 412.389C168.873 412.389 167.947 412.67 167.15 413.232C166.354 413.795 165.732 414.533 165.287 415.447V429H162.035V409.98H165.111ZM181.107 419.332C181.107 416.414 181.799 414.07 183.182 412.301C184.564 410.52 186.375 409.629 188.613 409.629C190.84 409.629 192.604 410.391 193.904 411.914V402H197.156V429H194.168L194.01 426.961C192.709 428.555 190.898 429.352 188.578 429.352C186.375 429.352 184.576 428.449 183.182 426.645C181.799 424.84 181.107 422.484 181.107 419.578V419.332ZM184.359 419.701C184.359 421.857 184.805 423.545 185.695 424.764C186.586 425.982 187.816 426.592 189.387 426.592C191.449 426.592 192.955 425.666 193.904 423.814V415.078C192.932 413.285 191.438 412.389 189.422 412.389C187.828 412.389 186.586 413.004 185.695 414.234C184.805 415.465 184.359 417.287 184.359 419.701ZM214.682 429H211.43V409.98H214.682V429ZM211.166 404.936C211.166 404.408 211.324 403.963 211.641 403.6C211.969 403.236 212.449 403.055 213.082 403.055C213.715 403.055 214.195 403.236 214.523 403.6C214.852 403.963 215.016 404.408 215.016 404.936C215.016 405.463 214.852 405.902 214.523 406.254C214.195 406.605 213.715 406.781 213.082 406.781C212.449 406.781 211.969 406.605 211.641 406.254C211.324 405.902 211.166 405.463 211.166 404.936ZM224.314 405.375V409.98H227.865V412.494H224.314V424.289C224.314 425.051 224.473 425.625 224.789 426.012C225.105 426.387 225.645 426.574 226.406 426.574C226.781 426.574 227.297 426.504 227.953 426.363V429C227.098 429.234 226.266 429.352 225.457 429.352C224.004 429.352 222.908 428.912 222.17 428.033C221.432 427.154 221.062 425.906 221.062 424.289V412.494H217.6V409.98H221.062V405.375H224.314ZM242.754 423.955C242.754 423.076 242.42 422.396 241.752 421.916C241.096 421.424 239.941 421.002 238.289 420.65C236.648 420.299 235.342 419.877 234.369 419.385C233.408 418.893 232.693 418.307 232.225 417.627C231.768 416.947 231.539 416.139 231.539 415.201C231.539 413.643 232.195 412.324 233.508 411.246C234.832 410.168 236.52 409.629 238.57 409.629C240.727 409.629 242.473 410.186 243.809 411.299C245.156 412.412 245.83 413.836 245.83 415.57H242.561C242.561 414.68 242.18 413.912 241.418 413.268C240.668 412.623 239.719 412.301 238.57 412.301C237.387 412.301 236.461 412.559 235.793 413.074C235.125 413.59 234.791 414.264 234.791 415.096C234.791 415.881 235.102 416.473 235.723 416.871C236.344 417.27 237.463 417.65 239.08 418.014C240.709 418.377 242.027 418.811 243.035 419.314C244.043 419.818 244.787 420.428 245.268 421.143C245.76 421.846 246.006 422.707 246.006 423.727C246.006 425.426 245.326 426.791 243.967 427.822C242.607 428.842 240.844 429.352 238.676 429.352C237.152 429.352 235.805 429.082 234.633 428.543C233.461 428.004 232.541 427.254 231.873 426.293C231.217 425.32 230.889 424.271 230.889 423.146H234.141C234.199 424.236 234.633 425.104 235.441 425.748C236.262 426.381 237.34 426.697 238.676 426.697C239.906 426.697 240.891 426.451 241.629 425.959C242.379 425.455 242.754 424.787 242.754 423.955Z" fill="black"/>
<path d="M106.014 297.744C106.014 297.123 105.703 296.637 105.082 296.285C104.473 295.922 103.488 295.6 102.129 295.318C97.6055 294.369 95.3438 292.447 95.3438 289.553C95.3438 287.865 96.041 286.459 97.4355 285.334C98.8418 284.197 100.676 283.629 102.938 283.629C105.352 283.629 107.279 284.197 108.721 285.334C110.174 286.471 110.9 287.947 110.9 289.764H105.82C105.82 289.037 105.586 288.439 105.117 287.971C104.648 287.49 103.916 287.25 102.92 287.25C102.064 287.25 101.402 287.443 100.934 287.83C100.465 288.217 100.23 288.709 100.23 289.307C100.23 289.869 100.494 290.326 101.021 290.678C101.561 291.018 102.463 291.316 103.729 291.574C104.994 291.82 106.061 292.102 106.928 292.418C109.611 293.402 110.953 295.107 110.953 297.533C110.953 299.268 110.209 300.674 108.721 301.752C107.232 302.818 105.311 303.352 102.955 303.352C101.361 303.352 99.9434 303.07 98.7012 302.508C97.4707 301.934 96.5039 301.154 95.8008 300.17C95.0977 299.174 94.7461 298.102 94.7461 296.953H99.5625C99.6094 297.855 99.9434 298.547 100.564 299.027C101.186 299.508 102.018 299.748 103.061 299.748C104.033 299.748 104.766 299.566 105.258 299.203C105.762 298.828 106.014 298.342 106.014 297.744ZM120.322 279.305V283.98H123.574V287.707H120.322V297.199C120.322 297.902 120.457 298.406 120.727 298.711C120.996 299.016 121.512 299.168 122.273 299.168C122.836 299.168 123.334 299.127 123.768 299.045V302.895C122.771 303.199 121.746 303.352 120.691 303.352C117.129 303.352 115.312 301.553 115.242 297.955V287.707H112.465V283.98H115.242V279.305H120.322ZM125.086 293.314C125.086 291.428 125.449 289.746 126.176 288.27C126.902 286.793 127.945 285.65 129.305 284.842C130.676 284.033 132.264 283.629 134.068 283.629C136.635 283.629 138.727 284.414 140.344 285.984C141.973 287.555 142.881 289.688 143.068 292.383L143.104 293.684C143.104 296.602 142.289 298.945 140.66 300.715C139.031 302.473 136.846 303.352 134.104 303.352C131.361 303.352 129.17 302.473 127.529 300.715C125.9 298.957 125.086 296.566 125.086 293.543V293.314ZM130.166 293.684C130.166 295.488 130.506 296.871 131.186 297.832C131.865 298.781 132.838 299.256 134.104 299.256C135.334 299.256 136.295 298.787 136.986 297.85C137.678 296.9 138.023 295.389 138.023 293.314C138.023 291.545 137.678 290.174 136.986 289.201C136.295 288.229 135.322 287.742 134.068 287.742C132.826 287.742 131.865 288.229 131.186 289.201C130.506 290.162 130.166 291.656 130.166 293.684ZM156.92 288.744C156.229 288.65 155.619 288.604 155.092 288.604C153.17 288.604 151.91 289.254 151.312 290.555V303H146.232V283.98H151.031L151.172 286.248C152.191 284.502 153.604 283.629 155.408 283.629C155.971 283.629 156.498 283.705 156.99 283.857L156.92 288.744ZM166.799 295.811L170.314 283.98H175.764L168.117 305.953L167.695 306.955C166.559 309.439 164.684 310.682 162.07 310.682C161.332 310.682 160.582 310.57 159.82 310.348V306.498L160.594 306.516C161.555 306.516 162.27 306.369 162.738 306.076C163.219 305.783 163.594 305.297 163.863 304.617L164.461 303.053L157.799 283.98H163.266L166.799 295.811Z" fill="#304A78"/>
<path d="M182.443 335.666C182.443 338.596 181.775 340.945 180.439 342.715C179.115 344.473 177.322 345.352 175.061 345.352C173.139 345.352 171.586 344.684 170.402 343.348V352.312H165.322V325.98H170.033L170.209 327.844C171.439 326.367 173.045 325.629 175.025 325.629C177.369 325.629 179.191 326.496 180.492 328.23C181.793 329.965 182.443 332.355 182.443 335.402V335.666ZM177.363 335.297C177.363 333.527 177.047 332.162 176.414 331.201C175.793 330.24 174.885 329.76 173.689 329.76C172.096 329.76 171 330.369 170.402 331.588V339.375C171.023 340.629 172.131 341.256 173.725 341.256C176.15 341.256 177.363 339.27 177.363 335.297ZM194.361 345.352C191.572 345.352 189.299 344.496 187.541 342.785C185.795 341.074 184.922 338.795 184.922 335.947V335.455C184.922 333.545 185.291 331.84 186.029 330.34C186.768 328.828 187.811 327.668 189.158 326.859C190.518 326.039 192.064 325.629 193.799 325.629C196.4 325.629 198.445 326.449 199.934 328.09C201.434 329.73 202.184 332.057 202.184 335.068V337.143H190.072C190.236 338.385 190.729 339.381 191.549 340.131C192.381 340.881 193.43 341.256 194.695 341.256C196.652 341.256 198.182 340.547 199.283 339.129L201.779 341.924C201.018 343.002 199.986 343.846 198.686 344.455C197.385 345.053 195.943 345.352 194.361 345.352ZM193.781 329.742C192.773 329.742 191.953 330.082 191.32 330.762C190.699 331.441 190.301 332.414 190.125 333.68H197.191V333.275C197.168 332.15 196.863 331.283 196.277 330.674C195.691 330.053 194.859 329.742 193.781 329.742ZM215.771 330.744C215.08 330.65 214.471 330.604 213.943 330.604C212.021 330.604 210.762 331.254 210.164 332.555V345H205.084V325.98H209.883L210.023 328.248C211.043 326.502 212.455 325.629 214.26 325.629C214.822 325.629 215.35 325.705 215.842 325.857L215.771 330.744ZM228.533 339.744C228.533 339.123 228.223 338.637 227.602 338.285C226.992 337.922 226.008 337.6 224.648 337.318C220.125 336.369 217.863 334.447 217.863 331.553C217.863 329.865 218.561 328.459 219.955 327.334C221.361 326.197 223.195 325.629 225.457 325.629C227.871 325.629 229.799 326.197 231.24 327.334C232.693 328.471 233.42 329.947 233.42 331.764H228.34C228.34 331.037 228.105 330.439 227.637 329.971C227.168 329.49 226.436 329.25 225.439 329.25C224.584 329.25 223.922 329.443 223.453 329.83C222.984 330.217 222.75 330.709 222.75 331.307C222.75 331.869 223.014 332.326 223.541 332.678C224.08 333.018 224.982 333.316 226.248 333.574C227.514 333.82 228.58 334.102 229.447 334.418C232.131 335.402 233.473 337.107 233.473 339.533C233.473 341.268 232.729 342.674 231.24 343.752C229.752 344.818 227.83 345.352 225.475 345.352C223.881 345.352 222.463 345.07 221.221 344.508C219.99 343.934 219.023 343.154 218.32 342.17C217.617 341.174 217.266 340.102 217.266 338.953H222.082C222.129 339.855 222.463 340.547 223.084 341.027C223.705 341.508 224.537 341.748 225.58 341.748C226.553 341.748 227.285 341.566 227.777 341.203C228.281 340.828 228.533 340.342 228.533 339.744ZM253.881 335.666C253.881 338.596 253.213 340.945 251.877 342.715C250.553 344.473 248.76 345.352 246.498 345.352C244.576 345.352 243.023 344.684 241.84 343.348V352.312H236.76V325.98H241.471L241.646 327.844C242.877 326.367 244.482 325.629 246.463 325.629C248.807 325.629 250.629 326.496 251.93 328.23C253.23 329.965 253.881 332.355 253.881 335.402V335.666ZM248.801 335.297C248.801 333.527 248.484 332.162 247.852 331.201C247.23 330.24 246.322 329.76 245.127 329.76C243.533 329.76 242.438 330.369 241.84 331.588V339.375C242.461 340.629 243.568 341.256 245.162 341.256C247.588 341.256 248.801 339.27 248.801 335.297ZM265.799 345.352C263.01 345.352 260.736 344.496 258.979 342.785C257.232 341.074 256.359 338.795 256.359 335.947V335.455C256.359 333.545 256.729 331.84 257.467 330.34C258.205 328.828 259.248 327.668 260.596 326.859C261.955 326.039 263.502 325.629 265.236 325.629C267.838 325.629 269.883 326.449 271.371 328.09C272.871 329.73 273.621 332.057 273.621 335.068V337.143H261.51C261.674 338.385 262.166 339.381 262.986 340.131C263.818 340.881 264.867 341.256 266.133 341.256C268.09 341.256 269.619 340.547 270.721 339.129L273.217 341.924C272.455 343.002 271.424 343.846 270.123 344.455C268.822 345.053 267.381 345.352 265.799 345.352ZM265.219 329.742C264.211 329.742 263.391 330.082 262.758 330.762C262.137 331.441 261.738 332.414 261.562 333.68H268.629V333.275C268.605 332.15 268.301 331.283 267.715 330.674C267.129 330.053 266.297 329.742 265.219 329.742ZM284.432 341.256C285.369 341.256 286.131 340.998 286.717 340.482C287.303 339.967 287.607 339.281 287.631 338.426H292.395C292.383 339.715 292.031 340.898 291.34 341.977C290.648 343.043 289.699 343.875 288.492 344.473C287.297 345.059 285.973 345.352 284.52 345.352C281.801 345.352 279.656 344.49 278.086 342.768C276.516 341.033 275.73 338.643 275.73 335.596V335.262C275.73 332.332 276.51 329.994 278.068 328.248C279.627 326.502 281.766 325.629 284.484 325.629C286.863 325.629 288.768 326.309 290.197 327.668C291.639 329.016 292.371 330.814 292.395 333.064H287.631C287.607 332.08 287.303 331.283 286.717 330.674C286.131 330.053 285.357 329.742 284.396 329.742C283.213 329.742 282.316 330.176 281.707 331.043C281.109 331.898 280.811 333.293 280.811 335.227V335.754C280.811 337.711 281.109 339.117 281.707 339.973C282.305 340.828 283.213 341.256 284.432 341.256ZM301.377 321.305V325.98H304.629V329.707H301.377V339.199C301.377 339.902 301.512 340.406 301.781 340.711C302.051 341.016 302.566 341.168 303.328 341.168C303.891 341.168 304.389 341.127 304.822 341.045V344.895C303.826 345.199 302.801 345.352 301.746 345.352C298.184 345.352 296.367 343.553 296.297 339.955V329.707H293.52V325.98H296.297V321.305H301.377ZM312.82 345H307.723V325.98H312.82V345ZM307.424 321.059C307.424 320.297 307.676 319.67 308.18 319.178C308.695 318.686 309.393 318.439 310.271 318.439C311.139 318.439 311.83 318.686 312.346 319.178C312.861 319.67 313.119 320.297 313.119 321.059C313.119 321.832 312.855 322.465 312.328 322.957C311.812 323.449 311.127 323.695 310.271 323.695C309.416 323.695 308.725 323.449 308.197 322.957C307.682 322.465 307.424 321.832 307.424 321.059ZM324.141 338.795L327.674 325.98H332.982L326.566 345H321.715L315.299 325.98H320.607L324.141 338.795ZM343.74 345.352C340.951 345.352 338.678 344.496 336.92 342.785C335.174 341.074 334.301 338.795 334.301 335.947V335.455C334.301 333.545 334.67 331.84 335.408 330.34C336.146 328.828 337.189 327.668 338.537 326.859C339.896 326.039 341.443 325.629 343.178 325.629C345.779 325.629 347.824 326.449 349.312 328.09C350.812 329.73 351.562 332.057 351.562 335.068V337.143H339.451C339.615 338.385 340.107 339.381 340.928 340.131C341.76 340.881 342.809 341.256 344.074 341.256C346.031 341.256 347.561 340.547 348.662 339.129L351.158 341.924C350.396 343.002 349.365 343.846 348.064 344.455C346.764 345.053 345.322 345.352 343.74 345.352ZM343.16 329.742C342.152 329.742 341.332 330.082 340.699 330.762C340.078 331.441 339.68 332.414 339.504 333.68H346.57V333.275C346.547 332.15 346.242 331.283 345.656 330.674C345.07 330.053 344.238 329.742 343.16 329.742Z" fill="#9DBEDF"/>
<path d="M13.3418 385.066C12.0879 386.59 10.3535 387.352 8.13867 387.352C6.09961 387.352 4.54102 386.766 3.46289 385.594C2.39648 384.422 1.85156 382.705 1.82812 380.443V367.98H6.9082V380.268C6.9082 382.248 7.81055 383.238 9.61523 383.238C11.3379 383.238 12.5215 382.641 13.166 381.445V367.98H18.2637V387H13.4824L13.3418 385.066ZM26.7715 367.98L26.9297 370.178C28.2891 368.479 30.1113 367.629 32.3965 367.629C34.4121 367.629 35.9121 368.221 36.8965 369.404C37.8809 370.588 38.3848 372.357 38.4082 374.713V387H33.3281V374.836C33.3281 373.758 33.0938 372.979 32.625 372.498C32.1562 372.006 31.377 371.76 30.2871 371.76C28.8574 371.76 27.7852 372.369 27.0703 373.588V387H21.9902V367.98H26.7715ZM49.3945 380.795L52.9277 367.98H58.2363L51.8203 387H46.9688L40.5527 367.98H45.8613L49.3945 380.795ZM68.9941 387.352C66.2051 387.352 63.9316 386.496 62.1738 384.785C60.4277 383.074 59.5547 380.795 59.5547 377.947V377.455C59.5547 375.545 59.9238 373.84 60.6621 372.34C61.4004 370.828 62.4434 369.668 63.791 368.859C65.1504 368.039 66.6973 367.629 68.4316 367.629C71.0332 367.629 73.0781 368.449 74.5664 370.09C76.0664 371.73 76.8164 374.057 76.8164 377.068V379.143H64.7051C64.8691 380.385 65.3613 381.381 66.1816 382.131C67.0137 382.881 68.0625 383.256 69.3281 383.256C71.2852 383.256 72.8145 382.547 73.916 381.129L76.4121 383.924C75.6504 385.002 74.6191 385.846 73.3184 386.455C72.0176 387.053 70.5762 387.352 68.9941 387.352ZM68.4141 371.742C67.4062 371.742 66.5859 372.082 65.9531 372.762C65.332 373.441 64.9336 374.414 64.7578 375.68H71.8242V375.275C71.8008 374.15 71.4961 373.283 70.9102 372.674C70.3242 372.053 69.4922 371.742 68.4141 371.742ZM85.0781 387H79.9805V367.98H85.0781V387ZM79.6816 363.059C79.6816 362.297 79.9336 361.67 80.4375 361.178C80.9531 360.686 81.6504 360.439 82.5293 360.439C83.3965 360.439 84.0879 360.686 84.6035 361.178C85.1191 361.67 85.377 362.297 85.377 363.059C85.377 363.832 85.1133 364.465 84.5859 364.957C84.0703 365.449 83.3848 365.695 82.5293 365.695C81.6738 365.695 80.9824 365.449 80.4551 364.957C79.9395 364.465 79.6816 363.832 79.6816 363.059ZM94.6406 387H89.543V360H94.6406V387Z" fill="#ABB767"/>
<path d="M178.418 387C178.184 386.543 178.014 385.975 177.908 385.295C176.678 386.666 175.078 387.352 173.109 387.352C171.246 387.352 169.699 386.812 168.469 385.734C167.25 384.656 166.641 383.297 166.641 381.656C166.641 379.641 167.385 378.094 168.873 377.016C170.373 375.938 172.535 375.393 175.359 375.381H177.697V374.291C177.697 373.412 177.469 372.709 177.012 372.182C176.566 371.654 175.857 371.391 174.885 371.391C174.029 371.391 173.355 371.596 172.863 372.006C172.383 372.416 172.143 372.979 172.143 373.693H167.062C167.062 372.592 167.402 371.572 168.082 370.635C168.762 369.697 169.723 368.965 170.965 368.438C172.207 367.898 173.602 367.629 175.148 367.629C177.492 367.629 179.35 368.221 180.721 369.404C182.104 370.576 182.795 372.229 182.795 374.361V382.605C182.807 384.41 183.059 385.775 183.551 386.701V387H178.418ZM174.217 383.467C174.967 383.467 175.658 383.303 176.291 382.975C176.924 382.635 177.393 382.184 177.697 381.621V378.352H175.799C173.256 378.352 171.902 379.23 171.738 380.988L171.721 381.287C171.721 381.92 171.943 382.441 172.389 382.852C172.834 383.262 173.443 383.467 174.217 383.467ZM198.088 385.066C196.834 386.59 195.1 387.352 192.885 387.352C190.846 387.352 189.287 386.766 188.209 385.594C187.143 384.422 186.598 382.705 186.574 380.443V367.98H191.654V380.268C191.654 382.248 192.557 383.238 194.361 383.238C196.084 383.238 197.268 382.641 197.912 381.445V367.98H203.01V387H198.229L198.088 385.066ZM212.924 363.305V367.98H216.176V371.707H212.924V381.199C212.924 381.902 213.059 382.406 213.328 382.711C213.598 383.016 214.113 383.168 214.875 383.168C215.438 383.168 215.936 383.127 216.369 383.045V386.895C215.373 387.199 214.348 387.352 213.293 387.352C209.73 387.352 207.914 385.553 207.844 381.955V371.707H205.066V367.98H207.844V363.305H212.924ZM223.963 370.055C225.311 368.438 227.004 367.629 229.043 367.629C233.168 367.629 235.26 370.025 235.318 374.818V387H230.238V374.959C230.238 373.869 230.004 373.066 229.535 372.551C229.066 372.023 228.287 371.76 227.197 371.76C225.709 371.76 224.631 372.334 223.963 373.482V387H218.883V360H223.963V370.055ZM247.904 387.352C245.115 387.352 242.842 386.496 241.084 384.785C239.338 383.074 238.465 380.795 238.465 377.947V377.455C238.465 375.545 238.834 373.84 239.572 372.34C240.311 370.828 241.354 369.668 242.701 368.859C244.061 368.039 245.607 367.629 247.342 367.629C249.943 367.629 251.988 368.449 253.477 370.09C254.977 371.73 255.727 374.057 255.727 377.068V379.143H243.615C243.779 380.385 244.271 381.381 245.092 382.131C245.924 382.881 246.973 383.256 248.238 383.256C250.195 383.256 251.725 382.547 252.826 381.129L255.322 383.924C254.561 385.002 253.529 385.846 252.229 386.455C250.928 387.053 249.486 387.352 247.904 387.352ZM247.324 371.742C246.316 371.742 245.496 372.082 244.863 372.762C244.242 373.441 243.844 374.414 243.668 375.68H250.734V375.275C250.711 374.15 250.406 373.283 249.82 372.674C249.234 372.053 248.402 371.742 247.324 371.742ZM263.303 367.98L263.461 370.178C264.82 368.479 266.643 367.629 268.928 367.629C270.943 367.629 272.443 368.221 273.428 369.404C274.412 370.588 274.916 372.357 274.939 374.713V387H269.859V374.836C269.859 373.758 269.625 372.979 269.156 372.498C268.688 372.006 267.908 371.76 266.818 371.76C265.389 371.76 264.316 372.369 263.602 373.588V387H258.521V367.98H263.303ZM284.889 363.305V367.98H288.141V371.707H284.889V381.199C284.889 381.902 285.023 382.406 285.293 382.711C285.562 383.016 286.078 383.168 286.84 383.168C287.402 383.168 287.9 383.127 288.334 383.045V386.895C287.338 387.199 286.312 387.352 285.258 387.352C281.695 387.352 279.879 385.553 279.809 381.955V371.707H277.031V367.98H279.809V363.305H284.889ZM296.332 387H291.234V367.98H296.332V387ZM290.936 363.059C290.936 362.297 291.188 361.67 291.691 361.178C292.207 360.686 292.904 360.439 293.783 360.439C294.65 360.439 295.342 360.686 295.857 361.178C296.373 361.67 296.631 362.297 296.631 363.059C296.631 363.832 296.367 364.465 295.84 364.957C295.324 365.449 294.639 365.695 293.783 365.695C292.928 365.695 292.236 365.449 291.709 364.957C291.193 364.465 290.936 363.832 290.936 363.059ZM308.443 383.256C309.381 383.256 310.143 382.998 310.729 382.482C311.314 381.967 311.619 381.281 311.643 380.426H316.406C316.395 381.715 316.043 382.898 315.352 383.977C314.66 385.043 313.711 385.875 312.504 386.473C311.309 387.059 309.984 387.352 308.531 387.352C305.812 387.352 303.668 386.49 302.098 384.768C300.527 383.033 299.742 380.643 299.742 377.596V377.262C299.742 374.332 300.521 371.994 302.08 370.248C303.639 368.502 305.777 367.629 308.496 367.629C310.875 367.629 312.779 368.309 314.209 369.668C315.65 371.016 316.383 372.814 316.406 375.064H311.643C311.619 374.08 311.314 373.283 310.729 372.674C310.143 372.053 309.369 371.742 308.408 371.742C307.225 371.742 306.328 372.176 305.719 373.043C305.121 373.898 304.822 375.293 304.822 377.227V377.754C304.822 379.711 305.121 381.117 305.719 381.973C306.316 382.828 307.225 383.256 308.443 383.256Z" fill="#E9A970"/>
<path d="M8.0332 405.305V409.98H11.2852V413.707H8.0332V423.199C8.0332 423.902 8.16797 424.406 8.4375 424.711C8.70703 425.016 9.22266 425.168 9.98438 425.168C10.5469 425.168 11.0449 425.127 11.4785 425.045V428.895C10.4824 429.199 9.45703 429.352 8.40234 429.352C4.83984 429.352 3.02344 427.553 2.95312 423.955V413.707H0.175781V409.98H2.95312V405.305H8.0332ZM22.8691 429.352C20.0801 429.352 17.8066 428.496 16.0488 426.785C14.3027 425.074 13.4297 422.795 13.4297 419.947V419.455C13.4297 417.545 13.7988 415.84 14.5371 414.34C15.2754 412.828 16.3184 411.668 17.666 410.859C19.0254 410.039 20.5723 409.629 22.3066 409.629C24.9082 409.629 26.9531 410.449 28.4414 412.09C29.9414 413.73 30.6914 416.057 30.6914 419.068V421.143H18.5801C18.7441 422.385 19.2363 423.381 20.0566 424.131C20.8887 424.881 21.9375 425.256 23.2031 425.256C25.1602 425.256 26.6895 424.547 27.791 423.129L30.2871 425.924C29.5254 427.002 28.4941 427.846 27.1934 428.455C25.8926 429.053 24.4512 429.352 22.8691 429.352ZM22.2891 413.742C21.2812 413.742 20.4609 414.082 19.8281 414.762C19.207 415.441 18.8086 416.414 18.6328 417.68H25.6992V417.275C25.6758 416.15 25.3711 415.283 24.7852 414.674C24.1992 414.053 23.3672 413.742 22.2891 413.742ZM44.2793 414.744C43.5879 414.65 42.9785 414.604 42.4512 414.604C40.5293 414.604 39.2695 415.254 38.6719 416.555V429H33.5918V409.98H38.3906L38.5312 412.248C39.5508 410.502 40.9629 409.629 42.7676 409.629C43.3301 409.629 43.8574 409.705 44.3496 409.857L44.2793 414.744ZM57.4277 414.744C56.7363 414.65 56.127 414.604 55.5996 414.604C53.6777 414.604 52.418 415.254 51.8203 416.555V429H46.7402V409.98H51.5391L51.6797 412.248C52.6992 410.502 54.1113 409.629 55.916 409.629C56.4785 409.629 57.0059 409.705 57.498 409.857L57.4277 414.744ZM65.25 429H60.1523V409.98H65.25V429ZM59.8535 405.059C59.8535 404.297 60.1055 403.67 60.6094 403.178C61.125 402.686 61.8223 402.439 62.7012 402.439C63.5684 402.439 64.2598 402.686 64.7754 403.178C65.291 403.67 65.5488 404.297 65.5488 405.059C65.5488 405.832 65.2852 406.465 64.7578 406.957C64.2422 407.449 63.5566 407.695 62.7012 407.695C61.8457 407.695 61.1543 407.449 60.627 406.957C60.1113 406.465 59.8535 405.832 59.8535 405.059ZM75.5332 405.305V409.98H78.7852V413.707H75.5332V423.199C75.5332 423.902 75.668 424.406 75.9375 424.711C76.207 425.016 76.7227 425.168 77.4844 425.168C78.0469 425.168 78.5449 425.127 78.9785 425.045V428.895C77.9824 429.199 76.957 429.352 75.9023 429.352C72.3398 429.352 70.5234 427.553 70.4531 423.955V413.707H67.6758V409.98H70.4531V405.305H75.5332ZM80.2969 419.314C80.2969 417.428 80.6602 415.746 81.3867 414.27C82.1133 412.793 83.1562 411.65 84.5156 410.842C85.8867 410.033 87.4746 409.629 89.2793 409.629C91.8457 409.629 93.9375 410.414 95.5547 411.984C97.1836 413.555 98.0918 415.688 98.2793 418.383L98.3145 419.684C98.3145 422.602 97.5 424.945 95.8711 426.715C94.2422 428.473 92.0566 429.352 89.3145 429.352C86.5723 429.352 84.3809 428.473 82.7402 426.715C81.1113 424.957 80.2969 422.566 80.2969 419.543V419.314ZM85.377 419.684C85.377 421.488 85.7168 422.871 86.3965 423.832C87.0762 424.781 88.0488 425.256 89.3145 425.256C90.5449 425.256 91.5059 424.787 92.1973 423.85C92.8887 422.9 93.2344 421.389 93.2344 419.314C93.2344 417.545 92.8887 416.174 92.1973 415.201C91.5059 414.229 90.5332 413.742 89.2793 413.742C88.0371 413.742 87.0762 414.229 86.3965 415.201C85.7168 416.162 85.377 417.656 85.377 419.684ZM112.131 414.744C111.439 414.65 110.83 414.604 110.303 414.604C108.381 414.604 107.121 415.254 106.523 416.555V429H101.443V409.98H106.242L106.383 412.248C107.402 410.502 108.814 409.629 110.619 409.629C111.182 409.629 111.709 409.705 112.201 409.857L112.131 414.744ZM122.01 421.811L125.525 409.98H130.975L123.328 431.953L122.906 432.955C121.77 435.439 119.895 436.682 117.281 436.682C116.543 436.682 115.793 436.57 115.031 436.348V432.498L115.805 432.516C116.766 432.516 117.48 432.369 117.949 432.076C118.43 431.783 118.805 431.297 119.074 430.617L119.672 429.053L113.01 409.98H118.477L122.01 421.811ZM257.906 419.35C257.906 416.385 258.568 414.023 259.893 412.266C261.229 410.508 263.051 409.629 265.359 409.629C267.211 409.629 268.74 410.32 269.947 411.703V402H275.045V429H270.457L270.211 426.979C268.945 428.561 267.316 429.352 265.324 429.352C263.086 429.352 261.287 428.473 259.928 426.715C258.58 424.945 257.906 422.49 257.906 419.35ZM262.986 419.719C262.986 421.5 263.297 422.865 263.918 423.814C264.539 424.764 265.441 425.238 266.625 425.238C268.195 425.238 269.303 424.576 269.947 423.252V415.746C269.314 414.422 268.219 413.76 266.66 413.76C264.211 413.76 262.986 415.746 262.986 419.719ZM284.344 429H279.246V409.98H284.344V429ZM278.947 405.059C278.947 404.297 279.199 403.67 279.703 403.178C280.219 402.686 280.916 402.439 281.795 402.439C282.662 402.439 283.354 402.686 283.869 403.178C284.385 403.67 284.643 404.297 284.643 405.059C284.643 405.832 284.379 406.465 283.852 406.957C283.336 407.449 282.65 407.695 281.795 407.695C280.939 407.695 280.248 407.449 279.721 406.957C279.205 406.465 278.947 405.832 278.947 405.059ZM295.664 422.795L299.197 409.98H304.506L298.09 429H293.238L286.822 409.98H292.131L295.664 422.795ZM315.264 429.352C312.475 429.352 310.201 428.496 308.443 426.785C306.697 425.074 305.824 422.795 305.824 419.947V419.455C305.824 417.545 306.193 415.84 306.932 414.34C307.67 412.828 308.713 411.668 310.061 410.859C311.42 410.039 312.967 409.629 314.701 409.629C317.303 409.629 319.348 410.449 320.836 412.09C322.336 413.73 323.086 416.057 323.086 419.068V421.143H310.975C311.139 422.385 311.631 423.381 312.451 424.131C313.283 424.881 314.332 425.256 315.598 425.256C317.555 425.256 319.084 424.547 320.186 423.129L322.682 425.924C321.92 427.002 320.889 427.846 319.588 428.455C318.287 429.053 316.846 429.352 315.264 429.352ZM314.684 413.742C313.676 413.742 312.855 414.082 312.223 414.762C311.602 415.441 311.203 416.414 311.027 417.68H318.094V417.275C318.07 416.15 317.766 415.283 317.18 414.674C316.594 414.053 315.762 413.742 314.684 413.742ZM336.674 414.744C335.982 414.65 335.373 414.604 334.846 414.604C332.924 414.604 331.664 415.254 331.066 416.555V429H325.986V409.98H330.785L330.926 412.248C331.945 410.502 333.357 409.629 335.162 409.629C335.725 409.629 336.252 409.705 336.744 409.857L336.674 414.744ZM349.436 423.744C349.436 423.123 349.125 422.637 348.504 422.285C347.895 421.922 346.91 421.6 345.551 421.318C341.027 420.369 338.766 418.447 338.766 415.553C338.766 413.865 339.463 412.459 340.857 411.334C342.264 410.197 344.098 409.629 346.359 409.629C348.773 409.629 350.701 410.197 352.143 411.334C353.596 412.471 354.322 413.947 354.322 415.764H349.242C349.242 415.037 349.008 414.439 348.539 413.971C348.07 413.49 347.338 413.25 346.342 413.25C345.486 413.25 344.824 413.443 344.355 413.83C343.887 414.217 343.652 414.709 343.652 415.307C343.652 415.869 343.916 416.326 344.443 416.678C344.982 417.018 345.885 417.316 347.15 417.574C348.416 417.82 349.482 418.102 350.35 418.418C353.033 419.402 354.375 421.107 354.375 423.533C354.375 425.268 353.631 426.674 352.143 427.752C350.654 428.818 348.732 429.352 346.377 429.352C344.783 429.352 343.365 429.07 342.123 428.508C340.893 427.934 339.926 427.154 339.223 426.17C338.52 425.174 338.168 424.102 338.168 422.953H342.984C343.031 423.855 343.365 424.547 343.986 425.027C344.607 425.508 345.439 425.748 346.482 425.748C347.455 425.748 348.188 425.566 348.68 425.203C349.184 424.828 349.436 424.342 349.436 423.744ZM363.023 429H357.926V409.98H363.023V429ZM357.627 405.059C357.627 404.297 357.879 403.67 358.383 403.178C358.898 402.686 359.596 402.439 360.475 402.439C361.342 402.439 362.033 402.686 362.549 403.178C363.064 403.67 363.322 404.297 363.322 405.059C363.322 405.832 363.059 406.465 362.531 406.957C362.016 407.449 361.33 407.695 360.475 407.695C359.619 407.695 358.928 407.449 358.4 406.957C357.885 406.465 357.627 405.832 357.627 405.059ZM373.307 405.305V409.98H376.559V413.707H373.307V423.199C373.307 423.902 373.441 424.406 373.711 424.711C373.98 425.016 374.496 425.168 375.258 425.168C375.82 425.168 376.318 425.127 376.752 425.045V428.895C375.756 429.199 374.73 429.352 373.676 429.352C370.113 429.352 368.297 427.553 368.227 423.955V413.707H365.449V409.98H368.227V405.305H373.307ZM386.49 421.811L390.006 409.98H395.455L387.809 431.953L387.387 432.955C386.25 435.439 384.375 436.682 381.762 436.682C381.023 436.682 380.273 436.57 379.512 436.348V432.498L380.285 432.516C381.246 432.516 381.961 432.369 382.43 432.076C382.91 431.783 383.285 431.297 383.555 430.617L384.152 429.053L377.49 409.98H382.957L386.49 421.811Z" fill="#C38650"/>
</svg>
